<svg
          version="1.1"
          xmlns="http://www.w3.org/2000/svg"
          xmlns:xlink="http://www.w3.org/1999/xlink"
          x="0px"
          y="0px"
          width="30"
          height="30"
           fill="#00B373"
          viewBox="0 0 278.6 278.6"
          style="enable-background: new 0 0 278.6 278.6"
          xml:space="preserve"
        >
          <defs></defs>
          <g>
            <path
              d="M0,163.3c0-35,0-70.1,0-105.1c0-8,2-10,9.9-10c55.4,0,110.8,0,166.3,0c0.9,0,1.8,0,2.6,0.1c1.4,0.2,2.2,0.7,1.2,2.2
		c-3,4.1-6.6,7.9-10.8,10.2c-3,1.6-7.6,0.6-11.4,0.6c-34.3,0-68.5,0-102.8,0c-12.4,0-24.8,0-37.1,0c-4.9,0-4.9,0.1-4.9,5
		c0,42.8,0,85.6,0,128.4c0,21.6,0,43.3,0,64.9c0,5.6,0,5.7,5.6,5.7c64.4,0,128.8,0,193.3,0c5.3,0,5.3,0,5.3-5.6
		c0-47.8,0.1-95.6-0.1-143.4c0-4.9,0.9-8.7,4.9-11.8c1.9-1.4,3.4-3.3,5.1-5c0.7-0.6,1.3-1.9,2.4-1.4c1,0.5,0.8,1.8,0.8,2.7
		c0,7.2,0,14.5,0,21.7c0,14.5,0,29,0,43.5c0,13.9,0,27.7,0,41.6c0,14.2,0,28.5,0,42.7c0,7,0.2,14,0.1,21c0,3.7-2.3,6.4-6,7.1
		c-1.7,0.3-3.5,0.3-5.2,0.3c-69.6,0-139.1,0-208.7,0c-8.2,0-10.2-2-10.2-10.2C0,233.4,0,198.3,0,163.3z"
            />
            <path
              d="M79.4,201.1c-2.4,0.2-2.4-1.2-2.1-2.7c0.8-4.2,1.6-8.3,2.4-12.5c1-5.4,2.6-10.8,3-16.2c0.6-7.1,4.8-11.7,9.5-16.3
		c25.3-25.1,50.4-50.3,75.6-75.5c17.2-17.1,34.4-34.2,51.5-51.4c2.1-2.2,3.6-2.3,5.8-0.1c6.2,6.3,6.3,6.3,0.1,12.4
		c-41.6,41.7-83.3,83.3-125,124.9c-3.4,3.4-3.3,3.3,0.1,6.6c2.7,2.6,5.4,5.2,7.9,8c2.1,2.3,3.6,2.2,5.8,0
		c23.7-23.8,47.6-47.6,71.4-71.3c18.8-18.8,37.7-37.6,56.5-56.5c2.3-2.3,3.9-2.6,6.5-0.3c6.6,5.9,6.8,5.8,0.7,11.8
		c-15.3,15.1-30.4,30.5-45.8,45.5c-17.1,16.6-33.7,33.8-50.5,50.6c-10.9,10.9-21.8,21.7-32.7,32.5c-2.1,2.1-4.5,3.3-7.5,3.9
		c-10.4,1.9-20.9,4-31.3,6.1C80.6,200.8,79.9,201,79.4,201.1z"
            />
            <path
              d="M256.5,0c9,0.9,16,4.9,19.9,13.4c4,8.7,2.4,16.8-3.5,24.1c-2.2,2.7-4.9,5-7.3,7.5c-1.7,1.7-3.1,1.6-4.8-0.1
		c-9-9-18-18-27-27c-1.1-1.1-2.4-2.3-1-3.8c5.4-6.3,10.9-12.5,19.8-13.7C253.8,0.2,255.1,0.1,256.5,0z"
            />
          </g>
        </svg>